<svg height="512pt" viewBox="-16 0 511 512" width="512pt" xmlns="http://www.w3.org/2000/svg"><path d="m480.117188 390.234375c-1.523438-9.484375-7.566407-17.722656-16.117188-22.015625-1.035156-.523438-103.496094-53.398438-103.496094-123.21875-.003906-16.535156-13.460937-29.992188-30-29.996094h-8.261718v-14.710937c0-24.347657-18.289063-44.5-41.84375-47.433594v-112.964844c0-21.996093-17.898438-39.894531-39.898438-39.894531-21.996094 0-39.894531 17.898438-39.894531 39.894531v112.964844c-23.554688 2.933594-41.84375 23.085937-41.84375 47.433594v14.714843h-8.273438c-8.007812 0-15.535156 3.121094-21.199219 8.785157-5.675781 5.675781-8.796874 13.21875-8.785156 21.210937 0 19.503906-8.644531 50.292969-49.816406 86.214844-26.460938 23.085938-53.398438 36.855469-53.644531 36.976562-8.589844 4.3125-14.632813 12.546876-16.164063 22.035157-1.527344 9.484375 1.613282 19.203125 8.40625 25.996093 61.757813 61.761719 143.875 95.777344 231.214844 95.773438 87.34375 0 169.460938-34.015625 231.222656-95.777344 6.789063-6.789062 9.925782-16.507812 8.394532-25.988281zm-291.355469-189.941406c0-9.816407 7.976562-17.800781 17.78125-17.800781 13.269531 0 24.0625-10.792969 24.0625-24.0625v-118.535157c0-5.457031 4.4375-9.894531 9.894531-9.894531s9.898438 4.4375 9.898438 9.894531v118.535157c0 13.269531 10.792968 24.0625 24.058593 24.0625 9.804688 0 17.78125 7.984374 17.78125 17.800781v14.710937l-103.476562.003906zm206.976562 238.039062-43.417969-59.570312c-4.878906-6.695313-14.261718-8.167969-20.957031-3.289063-6.695312 4.878906-8.167969 14.261719-3.289062 20.957032l41.117187 56.414062c-35.25 16.96875-73.746094 26.8125-113.691406 28.785156v-84.183594c0-8.285156-6.714844-15-15-15-8.28125 0-15 6.714844-15 15v84.1875c-39.945312-1.972656-78.445312-11.820312-113.699219-28.792968l41.113281-56.410156c4.878907-6.695313 3.410157-16.078126-3.285156-20.957032-6.695312-4.878906-16.078125-3.40625-20.957031 3.289063l-43.414063 59.566406c-19.65625-12.09375-38.03125-26.582031-54.761718-43.3125h-.007813c.296875-.148437 29.828125-15.0625 59.402344-40.738281 39.652344-34.425782 60.613281-72.210938 60.613281-109.269532h180.003906c0 37.042969 20.957032 74.824219 60.605469 109.253907 29.289063 25.433593 59.058594 40.582031 59.398438 40.75-16.738281 16.734375-35.117188 31.222656-54.773438 43.320312zm0 0"/></svg>